<?xml version="1.0" encoding="UTF-8" standalone="yes"?>
<svg xmlns="http://www.w3.org/2000/svg" xmlns:xlink="http://www.w3.org/1999/xlink" width="100px" height="100px" viewBox="0 0 100 100" version="1.1">
  <style>
    path { fill: #ffffff; }
    @media (prefers-color-scheme: dark) {
      path { fill: #ffffff; }
    }
  </style>
  <g id="surface130802">
    <path d="M 49.75 0 C 49.460938 0.046875 49.179688 0.148438 48.9375 0.3125 L 4.9375 28.3125 C 4.296875 28.710938 3.9375 29.4375 4 30.1875 L 8 69.75 C 8.054688 70.320312 8.34375 70.851562 8.8125 71.1875 L 48.8125 99.625 C 49.515625 100.148438 50.484375 100.148438 51.1875 99.625 L 91.1875 71.1875 C 91.65625 70.851562 91.945312 70.320312 92 69.75 L 96 30.1875 C 96.0625 29.4375 95.703125 28.710938 95.0625 28.3125 L 51.0625 0.3125 C 50.671875 0.0625 50.210938 -0.0546875 49.75 0 Z M 50 4.375 L 54.625 7.3125 C 53.234375 7.726562 51.679688 8 50 8 C 48.320312 8 46.765625 7.726562 45.375 7.3125 Z M 41.1875 9.9375 C 43.679688 11.226562 46.710938 12 50 12 C 53.289062 12 56.320312 11.226562 58.8125 9.9375 L 82.125 24.8125 C 80.820312 26.265625 80 28.039062 80 30 C 80 31.960938 80.820312 33.734375 82.125 35.1875 L 58.75 50.0625 C 56.28125 48.757812 53.289062 48 50 48 C 46.710938 48 43.71875 48.757812 41.25 50.0625 L 17.8125 35.1875 C 19.140625 33.742188 20 31.976562 20 30 C 20 28.023438 19.140625 26.257812 17.8125 24.8125 Z M 49.75 14.5625 C 49.460938 14.609375 49.179688 14.710938 48.9375 14.875 L 27.8125 28.3125 C 27.234375 28.679688 26.882812 29.3125 26.882812 30 C 26.882812 30.6875 27.234375 31.320312 27.8125 31.6875 L 48.9375 45.125 C 49.585938 45.53125 50.414062 45.53125 51.0625 45.125 L 72.1875 31.6875 C 72.765625 31.320312 73.117188 30.6875 73.117188 30 C 73.117188 29.3125 72.765625 28.679688 72.1875 28.3125 L 51.0625 14.875 C 50.671875 14.625 50.210938 14.507812 49.75 14.5625 Z M 50 18.9375 L 53.375 21.125 L 49.75 23.375 L 46.375 21.25 Z M 57.125 23.4375 L 60.3125 25.4375 L 56.6875 27.75 L 53.5 25.75 Z M 42.625 23.625 L 46 25.8125 L 42.875 27.8125 L 39.4375 25.625 Z M 14.375 27 C 15.476562 27.945312 16 29.007812 16 30 C 16 30.992188 15.476562 32.054688 14.375 33 L 9.6875 30 Z M 85.625 27 L 90.3125 30 L 85.625 33 C 84.539062 32.039062 84 31 84 30 C 84 29 84.539062 27.960938 85.625 27 Z M 64.0625 27.8125 L 67.4375 30 L 63.8125 32.3125 L 60.375 30.125 Z M 35.75 28 L 39.125 30.1875 L 36 32.1875 L 32.5625 30 Z M 49.75 28.125 L 52.9375 30.125 L 49.75 32.1875 L 46.5625 30.1875 Z M 42.875 32.5 L 46 34.5625 L 42.875 36.5625 L 39.6875 34.5625 Z M 56.625 32.5 L 60.0625 34.6875 L 56.875 36.6875 L 53.5 34.5625 Z M 8.4375 33.875 L 24.0625 43.8125 L 25.8125 78.25 L 11.9375 68.375 Z M 91.5625 33.875 L 88.0625 68.375 L 74.1875 78.25 L 75.9375 43.8125 Z M 49.75 36.9375 L 53.125 39.0625 L 50 41.0625 L 46.625 38.875 Z M 28.25 46.5 L 48 59.0625 L 48 94.0625 L 29.9375 81.1875 Z M 71.75 46.5 L 70.0625 81.1875 L 52 94.0625 L 52 59.0625 Z M 50 52 C 51.671875 52 53.234375 52.273438 54.625 52.6875 L 50 55.625 L 45.375 52.6875 C 46.765625 52.273438 48.328125 52 50 52 Z M 50 52 "/>
  </g>
</svg>
